<?xml version="1.0" encoding="utf-8"?>
<!-- Generator: Adobe Illustrator 24.1.1, SVG Export Plug-In . SVG Version: 6.00 Build 0)  -->
<svg version="1.1" xmlns="http://www.w3.org/2000/svg" xmlns:xlink="http://www.w3.org/1999/xlink" x="0px" y="0px"
	 viewBox="0 0 279.2 113.97" style="enable-background:new 0 0 279.2 113.97;" xml:space="preserve">
<style type="text/css">
	.st0{fill:#8EB8B6;}
	.st1{fill:#10776A;}
	.st2{display:none;fill:#659DEF;}
	.st3{display:none;}
	.st4{display:inline;}
	.st5{fill:#659DEF;}
</style>
<g id="Capa_1">
</g>
<g id="Capa_3">
	<path class="st0" d="M90,87"/>
	<path class="st1" d="M90,213"/>
</g>
<g id="Capa_4">
	<path class="st0" d="M45,105c1.81,0,4.3,1.37,6.12,1.8c2.17,0.51,4.37,0.89,6.58,1.16c4.56,0.56,9.18,0.61,13.76,0.28
		c10.14-0.73,20.09-3.31,29.64-6.74c11.07-3.98,21.7-9.14,31.99-14.83c5.65-3.12,11.21-6.41,16.69-9.82
		c7.54-4.69,15.2-9.5,23.44-13.09c8.76-3.82,17.7-7.17,26.71-10.35c11.12-3.93,22.45-7.3,33.99-9.72c3.01-0.63,6.04-1.2,9.07-1.68
		c-5.85,0.94-11.93,0.97-17.82,1.73c-5.98,0.77-11.94,1.73-17.86,2.91c-11.77,2.33-23.38,5.51-34.66,9.6
		c-7.81,2.83-15.81,6.07-23.18,10.16c-7.77,4.31-14.26,10.17-21.62,15.05c-8.67,5.74-17.98,10.49-27.72,14.13
		C82.53,102.16,63.74,105,45,105z"/>
	<path class="st0" d="M90,87c0,0-4.57,1.44-6,1.64c-13.76,1.88-28.29,3.79-41.79-0.63c-5.22-1.71-10.08-4.46-13.97-8.37
		c-6.96-7.02-10.11-17.14-10.46-27.02c-0.27-7.72,1.09-15.65,4.99-22.33c5.57-9.52,16.38-15.75,27.41-15.79s21.89,6.1,27.53,15.58
		c-8.05-5.37-16.89-10.76-26.57-10.49c-13.96,0.39-25.36,13.36-27.3,27.2c-1.11,7.91,0.44,16.39,5.28,22.75
		c3.61,4.75,8.85,8.09,14.43,10.22c15.03,5.74,32.2,2.97,46.87-3.62c14.67-6.59,27.43-16.7,40.4-26.21
		c20.02-14.68,41.25-28.31,64.91-35.82s50.19-8.42,72.78,1.88c3.05,1.39,6.09,3.03,8.32,5.54c-19.13-9.99-42.17-10.62-63.09-5.32
		s-40.03,16.13-57.91,28.22c-13.95,9.43-27.32,19.7-41.24,29.18c-6.29,4.29-12.65,8.56-19.49,11.93C94.29,85.95,90,87,90,87"/>
	<path class="st2" d="M38,246c1.81,0,4.3,1.37,6.12,1.8c2.17,0.51,4.37,0.89,6.58,1.16c4.56,0.56,9.18,0.61,13.76,0.28
		c10.14-0.73,20.09-3.31,29.64-6.74c11.07-3.98,21.7-9.14,31.99-14.83c5.65-3.12,11.21-6.41,16.69-9.82
		c7.54-4.69,15.2-9.5,23.44-13.09c8.76-3.82,17.7-7.17,26.71-10.35c11.12-3.93,22.45-7.3,33.99-9.72c3.01-0.63,6.04-1.2,9.07-1.68
		c-5.85,0.94-11.93,0.97-17.82,1.73c-5.98,0.77-11.94,1.73-17.86,2.91c-11.77,2.33-23.38,5.51-34.66,9.6
		c-7.81,2.83-15.81,6.07-23.18,10.16c-7.77,4.31-14.26,10.17-21.62,15.05c-8.67,5.74-17.98,10.49-27.72,14.13
		C75.53,243.16,56.74,246,38,246z"/>
	<path class="st2" d="M83,228c0,0-4.57,1.44-6,1.64c-13.76,1.88-28.29,3.79-41.79-0.63c-5.22-1.71-10.08-4.46-13.97-8.37
		c-6.96-7.02-10.11-17.14-10.46-27.02c-0.27-7.72,1.09-15.65,4.99-22.33c5.57-9.52,16.38-15.75,27.41-15.79s21.89,6.1,27.53,15.58
		c-8.05-5.37-16.89-10.76-26.57-10.49c-13.96,0.39-25.36,13.36-27.3,27.2c-1.11,7.91,0.44,16.39,5.28,22.75
		c3.61,4.75,8.85,8.09,14.43,10.22c15.03,5.74,32.2,2.97,46.87-3.62c14.67-6.59,27.43-16.7,40.4-26.21
		c20.02-14.68,41.25-28.31,64.91-35.82c23.66-7.51,50.19-8.42,72.78,1.88c3.05,1.39,6.09,3.03,8.32,5.54
		c-19.13-9.99-42.17-10.62-63.09-5.32s-40.03,16.13-57.91,28.22c-13.95,9.43-27.32,19.7-41.24,29.18
		c-6.29,4.29-12.65,8.56-19.49,11.93C87.29,226.95,83,228,83,228"/>
	<g class="st3">
		<g class="st4">
			<path class="st5" d="M233.59,258.85c-1.32,2.77-2.28,5.34-3.68,7.63c-12.36,20.18-35.06,27.87-59.88,20.11
				c-12.54-3.92-24.8-8.76-37.46-12.24c-22.3-6.13-32.99-1.69-45.71,17.7c-0.35,0.53-0.79,1.01-1.35,1.71
				c-0.03-6.47,7.06-17.73,14.28-22.88c11.83-8.45,24.99-7.98,38.36-5.45c13.23,2.5,26.37,5.52,39.64,7.72
				c18.44,3.05,35.38-1.06,50.55-12.12c1.07-0.78,2.2-1.48,3.34-2.16C231.92,258.73,232.3,258.85,233.59,258.85z"/>
			<path class="st5" d="M223.58,294.43c-6.69,11.65-17.15,16.82-30.21,17.68c-14.28,0.94-26.02-5.26-37.71-12.39
				c-7.61-4.64-15.6-9.17-24.01-11.87c-14.32-4.6-27.97-2.29-39.58,8.14c-0.81,0.73-1.77,1.29-3.01,1.59
				c2.27-8.22,7.19-14.28,14.97-17.84c9.24-4.23,19-4.31,28.29-1.09c13.8,4.78,27.19,10.72,40.83,15.97
				c5.27,2.03,10.65,3.91,16.13,5.19C201.31,302.63,212.76,300.91,223.58,294.43z"/>
			<path class="st5" d="M94.44,313.48c-0.04-11.82,12.75-23.88,25.57-24.55c11.51-0.6,20.87,4.78,30.29,10.13
				c6.22,3.53,12.29,7.34,18.56,10.78c16.94,9.29,33.56,12.04,49.11-3.21c-6.18,8.94-14.56,13.79-25.22,14.49
				c-12.28,0.81-23.08-4.02-33.83-9.06c-8.73-4.09-17.45-8.2-26.35-11.88c-12.84-5.32-23.73-2.01-32.77,8.27
				c-1.53,1.74-3.23,3.33-4.87,4.97C94.84,313.52,94.61,313.47,94.44,313.48z"/>
		</g>
	</g>
</g>
<g id="Capa_2">
	<path class="st0" d="M88,84"/>
	<path class="st0" d="M88,84"/>
	<polyline class="st0" points="90,87 90,87 90,87 90,87 90,87 90,87 90,87 	"/>
	<path d="M88,210"/>
	<path d="M88,210"/>
	<polyline points="90,213 90,213 90,213 90,213 90,213 90,213 90,213 	"/>
</g>
</svg>
