<svg width="54" height="54" viewBox="0 0 54 54" fill="none" xmlns="http://www.w3.org/2000/svg">
<circle cx="26.8914" cy="26.8914" r="26.8914" fill="#D9D9D9"/>
<g clip-path="url(#clip0_136_26)">
<path d="M26.8993 18.0633C21.8969 18.0633 17.8619 22.1049 17.8619 27.1156C17.8619 32.1262 21.8969 36.1678 26.8993 36.1678C31.9017 36.1678 35.9366 32.1262 35.9366 27.1156C35.9366 22.1049 31.9017 18.0633 26.8993 18.0633ZM26.8993 33.0007C23.6666 33.0007 21.0238 30.3614 21.0238 27.1156C21.0238 23.8697 23.6587 21.2304 26.8993 21.2304C30.1398 21.2304 32.7747 23.8697 32.7747 27.1156C32.7747 30.3614 30.132 33.0007 26.8993 33.0007ZM38.4142 17.6931C38.4142 18.8669 37.4704 19.8045 36.3063 19.8045C35.1344 19.8045 34.1984 18.8591 34.1984 17.6931C34.1984 16.5271 35.1422 15.5817 36.3063 15.5817C37.4704 15.5817 38.4142 16.5271 38.4142 17.6931ZM44.3998 19.836C44.2661 17.0076 43.6211 14.5023 41.5525 12.4382C39.4918 10.3741 36.9906 9.72805 34.1669 9.58624C31.2567 9.4208 22.534 9.4208 19.6238 9.58624C16.8079 9.72017 14.3067 10.3662 12.2381 12.4303C10.1695 14.4945 9.53244 16.9998 9.39086 19.8281C9.22569 22.7431 9.22569 31.4802 9.39086 34.3952C9.52458 37.2235 10.1695 39.7288 12.2381 41.7929C14.3067 43.8571 16.8001 44.5031 19.6238 44.6449C22.534 44.8103 31.2567 44.8103 34.1669 44.6449C36.9906 44.511 39.4918 43.8649 41.5525 41.7929C43.6133 39.7288 44.2582 37.2235 44.3998 34.3952C44.565 31.4802 44.565 22.751 44.3998 19.836ZM40.6401 37.5229C40.0266 39.067 38.839 40.2566 37.2895 40.879C34.9692 41.8008 29.4634 41.5881 26.8993 41.5881C24.3351 41.5881 18.8215 41.7929 16.5091 40.879C14.9674 40.2645 13.7798 39.0749 13.1584 37.5229C12.2381 35.1987 12.4505 29.6839 12.4505 27.1156C12.4505 24.5472 12.246 19.0245 13.1584 16.7083C13.7719 15.1641 14.9596 13.9745 16.5091 13.3521C18.8294 12.4303 24.3351 12.643 26.8993 12.643C29.4634 12.643 34.977 12.4382 37.2895 13.3521C38.8311 13.9666 40.0188 15.1562 40.6401 16.7083C41.5604 19.0324 41.348 24.5472 41.348 27.1156C41.348 29.6839 41.5604 35.2066 40.6401 37.5229Z" fill="#06214E"/>
</g>
<defs>
<clipPath id="clip0_136_26">
<rect width="35.237" height="40.3371" fill="white" transform="translate(9.27289 6.95483)"/>
</clipPath>
</defs>
</svg>
