<?xml version="1.0" encoding="UTF-8"?>
<svg xmlns="http://www.w3.org/2000/svg" style="display: none;">
  <!-- Telefono -->
  <symbol id="telefono" viewBox="0 0 41 57">
    <path d="M0.791672 7.125C0.791672 3.19512 4.00547 0 7.95834 0H33.0417C36.9945 0 40.2083 3.19512 40.2083 7.125V49.875C40.2083 53.8049 36.9945 57 33.0417 57H7.95834C4.00547 57 0.791672 53.8049 0.791672 49.875V7.125ZM24.0833 49.875C24.0833 48.9302 23.7058 48.024 23.0338 47.3559C22.3618 46.6878 21.4504 46.3125 20.5 46.3125C19.5496 46.3125 18.6382 46.6878 17.9662 47.3559C17.2942 48.024 16.9167 48.9302 16.9167 49.875C16.9167 50.8198 17.2942 51.726 17.9662 52.3941C18.6382 53.0622 19.5496 53.4375 20.5 53.4375C21.4504 53.4375 22.3618 53.0622 23.0338 52.3941C23.7058 51.726 24.0833 50.8198 24.0833 49.875ZM33.0417 7.125H7.95834V42.75H33.0417V7.125Z" fill="currentColor"/>
  </symbol>
  <!-- Logo Splash y Navbar -->
  <symbol id="logo-splash" viewBox="0 0 259.1 110">
    <defs>
      <style>
        .st0{fill:#8EB8B6;}
        .st1{fill:#10776A;}
        .st2{display:none;fill:#659DEF;}
        .st3{display:none;}
        .st4{display:inline;}
        .st5{fill:#659DEF;}
	      .st6{fill:#FFFFFF;}
      </style>
    </defs>
    <g id="Capa_1">
    </g>
    <g id="Capa_3">
      <path class="st0" d="M90,87"/>
      <path class="st1" d="M90,213"/>
    </g>
    <g id="Capa_4">
      <path class="st0" d="M45,105c1.81,0,4.3,1.37,6.12,1.8c2.17,0.51,4.37,0.89,6.58,1.16c4.56,0.56,9.18,0.61,13.76,0.28
        c10.14-0.73,20.09-3.31,29.64-6.74c11.07-3.98,21.7-9.14,31.99-14.83c5.65-3.12,11.21-6.41,16.69-9.82
        c7.54-4.69,15.2-9.5,23.44-13.09c8.76-3.82,17.7-7.17,26.71-10.35c11.12-3.93,22.45-7.3,33.99-9.72c3.01-0.63,6.04-1.2,9.07-1.68
        c-5.85,0.94-11.93,0.97-17.82,1.73c-5.98,0.77-11.94,1.73-17.86,2.91c-11.77,2.33-23.38,5.51-34.66,9.6
        c-7.81,2.83-15.81,6.07-23.18,10.16c-7.77,4.31-14.26,10.17-21.62,15.05c-8.67,5.74-17.98,10.49-27.72,14.13
        C82.53,102.16,63.74,105,45,105z"/>
      <path class="st0" d="M90,87c0,0-4.57,1.44-6,1.64c-13.76,1.88-28.29,3.79-41.79-0.63c-5.22-1.71-10.08-4.46-13.97-8.37
        c-6.96-7.02-10.11-17.14-10.46-27.02c-0.27-7.72,1.09-15.65,4.99-22.33c5.57-9.52,16.38-15.75,27.41-15.79s21.89,6.1,27.53,15.58
        c-8.05-5.37-16.89-10.76-26.57-10.49c-13.96,0.39-25.36,13.36-27.3,27.2c-1.11,7.91,0.44,16.39,5.28,22.75
        c3.61,4.75,8.85,8.09,14.43,10.22c15.03,5.74,32.2,2.97,46.87-3.62c14.67-6.59,27.43-16.7,40.4-26.21
        c20.02-14.68,41.25-28.31,64.91-35.82s50.19-8.42,72.78,1.88c3.05,1.39,6.09,3.03,8.32,5.54c-19.13-9.99-42.17-10.62-63.09-5.32
        s-40.03,16.13-57.91,28.22c-13.95,9.43-27.32,19.7-41.24,29.18c-6.29,4.29-12.65,8.56-19.49,11.93C94.29,85.95,90,87,90,87"/>
      <path class="st2" d="M38,246c1.81,0,4.3,1.37,6.12,1.8c2.17,0.51,4.37,0.89,6.58,1.16c4.56,0.56,9.18,0.61,13.76,0.28
        c10.14-0.73,20.09-3.31,29.64-6.74c11.07-3.98,21.7-9.14,31.99-14.83c5.65-3.12,11.21-6.41,16.69-9.82
        c7.54-4.69,15.2-9.5,23.44-13.09c8.76-3.82,17.7-7.17,26.71-10.35c11.12-3.93,22.45-7.3,33.99-9.72c3.01-0.63,6.04-1.2,9.07-1.68
        c-5.85,0.94-11.93,0.97-17.82,1.73c-5.98,0.77-11.94,1.73-17.86,2.91c-11.77,2.33-23.38,5.51-34.66,9.6
        c-7.81,2.83-15.81,6.07-23.18,10.16c-7.77,4.31-14.26,10.17-21.62,15.05c-8.67,5.74-17.98,10.49-27.72,14.13
        C75.53,243.16,56.74,246,38,246z"/>
      <path class="st2" d="M83,228c0,0-4.57,1.44-6,1.64c-13.76,1.88-28.29,3.79-41.79-0.63c-5.22-1.71-10.08-4.46-13.97-8.37
        c-6.96-7.02-10.11-17.14-10.46-27.02c-0.27-7.72,1.09-15.65,4.99-22.33c5.57-9.52,16.38-15.75,27.41-15.79s21.89,6.1,27.53,15.58
        c-8.05-5.37-16.89-10.76-26.57-10.49c-13.96,0.39-25.36,13.36-27.3,27.2c-1.11,7.91,0.44,16.39,5.28,22.75
        c3.61,4.75,8.85,8.09,14.43,10.22c15.03,5.74,32.2,2.97,46.87-3.62c14.67-6.59,27.43-16.7,40.4-26.21
        c20.02-14.68,41.25-28.31,64.91-35.82c23.66-7.51,50.19-8.42,72.78,1.88c3.05,1.39,6.09,3.03,8.32,5.54
        c-19.13-9.99-42.17-10.62-63.09-5.32s-40.03,16.13-57.91,28.22c-13.95,9.43-27.32,19.7-41.24,29.18
        c-6.29,4.29-12.65,8.56-19.49,11.93C87.29,226.95,83,228,83,228"/>
      <g class="st3">
        <g class="st4">
          <path class="st5" d="M233.59,258.85c-1.32,2.77-2.28,5.34-3.68,7.63c-12.36,20.18-35.06,27.87-59.88,20.11
            c-12.54-3.92-24.8-8.76-37.46-12.24c-22.3-6.13-32.99-1.69-45.71,17.7c-0.35,0.53-0.79,1.01-1.35,1.71
            c-0.03-6.47,7.06-17.73,14.28-22.88c11.83-8.45,24.99-7.98,38.36-5.45c13.23,2.5,26.37,5.52,39.64,7.72
            c18.44,3.05,35.38-1.06,50.55-12.12c1.07-0.78,2.2-1.48,3.34-2.16C231.92,258.73,232.3,258.85,233.59,258.85z"/>
          <path class="st5" d="M223.58,294.43c-6.69,11.65-17.15,16.82-30.21,17.68c-14.28,0.94-26.02-5.26-37.71-12.39
            c-7.61-4.64-15.6-9.17-24.01-11.87c-14.32-4.6-27.97-2.29-39.58,8.14c-0.81,0.73-1.77,1.29-3.01,1.59
            c2.27-8.22,7.19-14.28,14.97-17.84c9.24-4.23,19-4.31,28.29-1.09c13.8,4.78,27.19,10.72,40.83,15.97
            c5.27,2.03,10.65,3.91,16.13,5.19C201.31,302.63,212.76,300.91,223.58,294.43z"/>
          <path class="st5" d="M94.44,313.48c-0.04-11.82,12.75-23.88,25.57-24.55c11.51-0.6,20.87,4.78,30.29,10.13
            c6.22,3.53,12.29,7.34,18.56,10.78c16.94,9.29,33.56,12.04,49.11-3.21c-6.18,8.94-14.56,13.79-25.22,14.49
            c-12.28,0.81-23.08-4.02-33.83-9.06c-8.73-4.09-17.45-8.2-26.35-11.88c-12.84-5.32-23.73-2.01-32.77,8.27
            c-1.53,1.74-3.23,3.33-4.87,4.97C94.84,313.52,94.61,313.47,94.44,313.48z"/>
        </g>
      </g>
    </g>
    <g id="Capa_2">
      <g>
        <path class="st6" d="M110,32.61L95.57,84.26H83.36l-9.69-36.78L63.53,84.26L51.4,84.33L37.48,32.61h11.1l9.1,40.11l10.51-40.11
          h11.54l9.92,39.89l9.18-39.89H110z"/>
        <path class="st6" d="M185.78,32.61l-14.43,51.65h-12.21l-9.69-36.78l-10.14,36.78l-12.14,0.07l-13.91-51.73h11.1l9.1,40.11
          l10.51-40.11h11.54l9.92,39.89l9.18-39.89H185.78z"/>
        <path class="st6" d="M200.62,82.93c-2.89-1.23-5.17-3.01-6.85-5.33c-1.68-2.32-2.54-5.06-2.59-8.21h11.1
          c0.15,2.12,0.9,3.8,2.26,5.03c1.36,1.23,3.22,1.85,5.59,1.85c2.42,0,4.32-0.58,5.7-1.74c1.38-1.16,2.07-2.68,2.07-4.55
          c0-1.53-0.47-2.79-1.41-3.77c-0.94-0.99-2.11-1.76-3.52-2.33c-1.41-0.57-3.34-1.2-5.81-1.89c-3.36-0.99-6.08-1.96-8.18-2.92
          c-2.1-0.96-3.9-2.42-5.4-4.37c-1.51-1.95-2.26-4.55-2.26-7.81c0-3.06,0.76-5.72,2.29-7.99c1.53-2.27,3.67-4.01,6.44-5.22
          c2.76-1.21,5.92-1.81,9.47-1.81c5.33,0,9.66,1.29,12.99,3.89c3.33,2.59,5.17,6.2,5.51,10.84h-11.4c-0.1-1.78-0.85-3.24-2.26-4.4
          c-1.41-1.16-3.27-1.74-5.59-1.74c-2.02,0-3.64,0.52-4.85,1.55c-1.21,1.04-1.81,2.54-1.81,4.51c0,1.38,0.46,2.53,1.37,3.44
          c0.91,0.91,2.05,1.65,3.4,2.22c1.36,0.57,3.27,1.22,5.73,1.96c3.35,0.99,6.09,1.97,8.21,2.96c2.12,0.99,3.95,2.47,5.48,4.44
          c1.53,1.97,2.29,4.56,2.29,7.77c0,2.76-0.72,5.33-2.15,7.7c-1.43,2.37-3.53,4.25-6.29,5.66c-2.76,1.41-6.04,2.11-9.84,2.11
          C206.75,84.78,203.5,84.16,200.62,82.93z"/>
      </g>
      <path class="st0" d="M88,84"/>
      <path class="st0" d="M88,84"/>
      <polyline class="st0" points="90,87 90,87 90,87 90,87 90,87 90,87 90,87 	"/>
      <path d="M88,210"/>
      <path d="M88,210"/>
      <polyline points="90,213 90,213 90,213 90,213 90,213 90,213 90,213 	"/>
    </g>
  </symbol>

  <!-- Logo Blanco y Negro -->
  <symbol id="logo-blanco-negro" viewBox="0 0 259.1 119.79">
    <defs>
      <style>
        .cls-1 { fill: #10776a; }
        .cls-2 { fill: #659def; }
        .cls-3 { font-size: 74px; fill: #fff; font-family: Poppins-SemiBold, Poppins; font-weight: 600; }
      </style>
    </defs>
    <g id="Capa_3" data-name="Capa 3">
      <path class="cls-1" d="M162,306" transform="translate(-89.75 -227.35)"/>
      <path class="cls-1" d="M162,432" transform="translate(-89.75 -227.35)"/>
    </g>
    <g id="Capa_4" data-name="Capa 4">
      <path class="cls-2" d="M117,324c1.81,0,4.3,1.37,6.12,1.8A61.21,61.21,0,0,0,129.7,327a71.11,71.11,0,0,0,13.76.28,111.39,111.39,0,0,0,29.64-6.74,221.87,221.87,0,0,0,32-14.82c5.65-3.12,11.21-6.42,16.69-9.83,7.54-4.68,15.21-9.5,23.44-13.09,8.76-3.82,17.7-7.17,26.71-10.35a265.82,265.82,0,0,1,34-9.73q4.51-.94,9.07-1.68c-5.85.94-11.93,1-17.82,1.73s-11.94,1.73-17.86,2.91a237.56,237.56,0,0,0-34.66,9.59,160.76,160.76,0,0,0-23.18,10.17c-7.77,4.31-14.26,10.17-21.62,15.05a137.43,137.43,0,0,1-27.73,14.13C154.53,321.16,135.74,324,117,324Z" transform="translate(-89.75 -227.35)"/>
      <path class="cls-2" d="M162,306s-4.57,1.44-6,1.64c-13.75,1.88-28.29,3.79-41.79-.63a34.89,34.89,0,0,1-14-8.38c-7-7-10.11-17.14-10.45-27-.27-7.72,1.09-15.66,5-22.33a31.9,31.9,0,0,1,54.94-.21c-8.05-5.37-16.88-10.76-26.56-10.49-14,.4-25.37,13.37-27.3,27.2-1.11,7.91.44,16.39,5.28,22.75a32.39,32.39,0,0,0,14.42,10.22c15,5.75,32.2,3,46.88-3.62s27.43-16.7,40.4-26.21c20-14.68,41.25-28.31,64.91-35.82s50.19-8.43,72.78,1.88a24.18,24.18,0,0,1,8.32,5.54c-19.13-10-42.17-10.63-63.09-5.32s-40,16.13-57.9,28.22c-14,9.44-27.32,19.7-41.24,29.19a163.9,163.9,0,0,1-19.49,11.93C166.29,305,162,306,162,306" transform="translate(-89.75 -227.35)"/>
    </g>
    <g id="Capa_2" data-name="Capa 2">
      <text class="cls-3" transform="translate(18.1 75.91)">WWS</text>
      <path d="M160,303" transform="translate(-89.75 -227.35)"/>
      <path d="M160,303" transform="translate(-89.75 -227.35)"/>
      <polyline points="72.25 78.65 72.25 78.65 72.25 78.65 72.25 78.65 72.25 78.65 72.25 78.65 72.25 78.65"/>
      <path d="M160,429" transform="translate(-89.75 -227.35)"/>
      <path d="M160,429" transform="translate(-89.75 -227.35)"/>
      <polyline points="72.25 204.65 72.25 204.65 72.25 204.65 72.25 204.65 72.25 204.65 72.25 204.65 72.25 204.65"/>
    </g>
  </symbol>
  <!-- Logo de whatsapp -->
  <symbol id="logo-whatsapp" viewBox="0 0 24 24">
      <g clip-path="url(#clip0_159_46)">
        <path d="M39.3559 13.7795C36.0166 10.4145 31.5697 8.56372 26.8437 8.56372C17.0891 8.56372 9.15142 16.5436 9.15142 26.3501C9.15142 29.4828 9.96431 32.5433 11.5104 35.2433L9 44.457L18.3801 41.9814C20.9622 43.3995 23.8711 44.1446 26.8358 44.1446H26.8437C36.5904 44.1446 44.7034 36.1647 44.7034 26.3582C44.7034 21.6071 42.6951 17.1445 39.3559 13.7795ZM26.8437 41.1481C24.1979 41.1481 21.6078 40.4351 19.3524 39.0891L18.8184 38.7686L13.2557 40.2348L14.738 34.7787L14.3874 34.2178C12.913 31.8623 12.14 29.1463 12.14 26.3501C12.14 18.202 18.7387 11.5682 26.8517 11.5682C30.7807 11.5682 34.4706 13.1065 37.2439 15.9026C40.0173 18.6988 41.7228 22.4083 41.7148 26.3582C41.7148 34.5143 34.9487 41.1481 26.8437 41.1481ZM34.9089 30.0757C34.4706 29.8513 32.2949 28.7777 31.8884 28.6335C31.482 28.4813 31.1871 28.4092 30.8922 28.8579C30.5974 29.3065 29.7526 30.3 29.4896 30.6045C29.2346 30.9009 28.9716 30.941 28.5333 30.7166C25.9352 29.4107 24.2297 28.3852 22.5163 25.4288C22.062 24.6436 22.9706 24.6997 23.8153 23.0012C23.9588 22.7047 23.887 22.4483 23.7755 22.224C23.6639 21.9997 22.7793 19.8124 22.4127 18.9231C22.0541 18.0578 21.6875 18.178 21.4165 18.162C21.1615 18.146 20.8666 18.146 20.5717 18.146C20.2769 18.146 19.7987 18.2581 19.3922 18.6988C18.9858 19.1474 17.8462 20.221 17.8462 22.4083C17.8462 24.5955 19.4321 26.7107 19.6473 27.0071C19.8704 27.3036 22.7633 31.7902 27.2024 33.7211C30.0076 34.9389 31.1074 35.0431 32.5101 34.8347C33.3628 34.7066 35.1241 33.7611 35.4907 32.7196C35.8572 31.6781 35.8572 30.7887 35.7457 30.6045C35.6421 30.4042 35.3472 30.292 34.9089 30.0757Z" fill="#06214E"/>
      </g>
    <defs>
    <clipPath id="clip0_159_46">
      <rect width="35.7034" height="41.0209" fill="white" transform="translate(9 6)"/>
    </clipPath>
    </defs>
  </symbol>
  <!-- Logo de instagram -->
  <symbol id="logo-instagram" viewBox="0 0 24 24">
    <circle cx="26.8914" cy="26.8914" r="26.8914" fill="#D9D9D9"/>
      <g clip-path="url(#clip0_136_26)">
        <path d="M26.8993 18.0633C21.8969 18.0633 17.8619 22.1049 17.8619 27.1156C17.8619 32.1262 21.8969 36.1678 26.8993 36.1678C31.9017 36.1678 35.9366 32.1262 35.9366 27.1156C35.9366 22.1049 31.9017 18.0633 26.8993 18.0633ZM26.8993 33.0007C23.6666 33.0007 21.0238 30.3614 21.0238 27.1156C21.0238 23.8697 23.6587 21.2304 26.8993 21.2304C30.1398 21.2304 32.7747 23.8697 32.7747 27.1156C32.7747 30.3614 30.132 33.0007 26.8993 33.0007ZM38.4142 17.6931C38.4142 18.8669 37.4704 19.8045 36.3063 19.8045C35.1344 19.8045 34.1984 18.8591 34.1984 17.6931C34.1984 16.5271 35.1422 15.5817 36.3063 15.5817C37.4704 15.5817 38.4142 16.5271 38.4142 17.6931ZM44.3998 19.836C44.2661 17.0076 43.6211 14.5023 41.5525 12.4382C39.4918 10.3741 36.9906 9.72805 34.1669 9.58624C31.2567 9.4208 22.534 9.4208 19.6238 9.58624C16.8079 9.72017 14.3067 10.3662 12.2381 12.4303C10.1695 14.4945 9.53244 16.9998 9.39086 19.8281C9.22569 22.7431 9.22569 31.4802 9.39086 34.3952C9.52458 37.2235 10.1695 39.7288 12.2381 41.7929C14.3067 43.8571 16.8001 44.5031 19.6238 44.6449C22.534 44.8103 31.2567 44.8103 34.1669 44.6449C36.9906 44.511 39.4918 43.8649 41.5525 41.7929C43.6133 39.7288 44.2582 37.2235 44.3998 34.3952C44.565 31.4802 44.565 22.751 44.3998 19.836ZM40.6401 37.5229C40.0266 39.067 38.839 40.2566 37.2895 40.879C34.9692 41.8008 29.4634 41.5881 26.8993 41.5881C24.3351 41.5881 18.8215 41.7929 16.5091 40.879C14.9674 40.2645 13.7798 39.0749 13.1584 37.5229C12.2381 35.1987 12.4505 29.6839 12.4505 27.1156C12.4505 24.5472 12.246 19.0245 13.1584 16.7083C13.7719 15.1641 14.9596 13.9745 16.5091 13.3521C18.8294 12.4303 24.3351 12.643 26.8993 12.643C29.4634 12.643 34.977 12.4382 37.2895 13.3521C38.8311 13.9666 40.0188 15.1562 40.6401 16.7083C41.5604 19.0324 41.348 24.5472 41.348 27.1156C41.348 29.6839 41.5604 35.2066 40.6401 37.5229Z" fill="#06214E"/>
      </g>
    <defs>
    <clipPath id="clip0_136_26">
      <rect width="35.237" height="40.3371" fill="white" transform="translate(9.27289 6.95483)"/>
    </clipPath>
    </defs>
  </symbol>
  <!-- Background -->
  <symbol id="background" viewBox="0 0 1440 1024">
    <path fill="url(#a)" fill-rule="evenodd" d="M-217.58 475.75c91.82-72.02 225.52-29.38 341.2-44.74C240 415.56 372.33 315.14 466.77 384.9c102.9 76.02 44.74 246.76 90.31 366.31 29.83 78.24 90.48 136.14 129.48 210.23 57.92 109.99 169.67 208.23 155.9 331.77-13.52 121.26-103.42 264.33-224.23 281.37-141.96 20.03-232.72-220.96-374.06-196.99-151.7 25.73-172.68 330.24-325.85 315.72-128.6-12.2-110.9-230.73-128.15-358.76-12.16-90.14 65.87-176.25 44.1-264.57-26.42-107.2-167.12-163.46-176.72-273.45-10.15-116.29 33.01-248.75 124.87-320.79Z" clip-rule="evenodd" style="opacity: 0.154"/>
    <path fill="url(#b)" fill-rule="evenodd" d="M1103.43 115.43c146.42-19.45 275.33-155.84 413.5-103.59 188.09 71.13 409 212.64 407.06 413.88-1.94 201.25-259.28 278.6-414.96 405.96-130 106.35-240.24 294.39-405.6 265.3-163.7-28.8-161.93-274.12-284.34-386.66-134.95-124.06-436-101.46-445.82-284.6-9.68-180.38 247.41-246.3 413.54-316.9 101.01-42.93 207.83 21.06 316.62 6.61Z" clip-rule="evenodd" style="opacity: 0.154"/>
    <defs>
      <linearGradient id="b" x1="373" x2="1995.44" y1="1100" y2="118.03" gradientUnits="userSpaceOnUse">
        <stop stop-color="#D83333"/>
        <stop offset="1" stop-color="#F041FF"/>
      </linearGradient>
      <linearGradient id="a" x1="107.37" x2="1130.66" y1="1993.35" y2="1026.31" gradientUnits="userSpaceOnUse">
        <stop stop-color="#3245FF"/>
        <stop offset="1" stop-color="#BC52EE"/>
      </linearGradient>
    </defs>
  </symbol>

  <!-- Instagram -->
  <symbol id="instagram" viewBox="0 0 24 24">
    <path fill="currentColor" d="M12 2.163c3.204 0 3.584.012 4.85.07 3.252.148 4.771 1.691 4.919 4.919.058 1.265.069 1.645.069 4.849 0 3.205-.012 3.584-.069 4.849-.149 3.225-1.664 4.771-4.919 4.919-1.266.058-1.644.07-4.85.07-3.204 0-3.584-.012-4.849-.07-3.26-.149-4.771-1.699-4.919-4.92-.058-1.265-.07-1.644-.07-4.849 0-3.204.013-3.583.07-4.849.149-3.227 1.664-4.771 4.919-4.919 1.266-.057 1.645-.069 4.849-.069zm0-2.163c-3.259 0-3.667.014-4.947.072-4.358.2-6.78 2.618-6.98 6.98-.059 1.281-.073 1.689-.073 4.948 0 3.259.014 3.668.072 4.948.2 4.358 2.618 6.78 6.98 6.98 1.281.058 1.689.072 4.948.072 3.259 0 3.668-.014 4.948-.072 4.354-.2 6.782-2.618 6.979-6.98.059-1.28.073-1.689.073-4.948 0-3.259-.014-3.667-.072-4.947-.196-4.354-2.617-6.78-6.979-6.98-1.281-.059-1.69-.073-4.949-.073zm0 5.838c-3.403 0-6.162 2.759-6.162 6.162s2.759 6.163 6.162 6.163 6.162-2.759 6.162-6.163c0-3.403-2.759-6.162-6.162-6.162zm0 10.162c-2.209 0-4-1.79-4-4 0-2.209 1.791-4 4-4s4 1.791 4 4c0 2.21-1.791 4-4 4zm6.406-11.845c-.796 0-1.441.645-1.441 1.44s.645 1.44 1.441 1.44c.795 0 1.439-.645 1.439-1.44s-.644-1.44-1.439-1.44z"/>
  </symbol>

  <!-- Facebook -->
  <symbol id="facebook" viewBox="0 0 24 24">
    <path fill="currentColor" d="M9 8h-3v4h3v12h5v-12h3.642l.358-4h-4v-1.667c0-.955.192-1.333 1.115-1.333h2.885v-5h-3.808c-3.596 0-5.192 1.583-5.192 4.615v3.385z"/>
  </symbol>

  <!-- Whatsapp -->
  <symbol id="whatsapp" viewBox="0 0 24 24">
    <path fill="currentColor" d="M.057 24l1.687-6.163c-1.041-1.804-1.588-3.849-1.587-5.946.003-6.556 5.338-11.891 11.893-11.891 3.181.001 6.167 1.24 8.413 3.488 2.245 2.248 3.481 5.236 3.48 8.414-.003 6.557-5.338 11.892-11.893 11.892-1.99-.001-3.951-.5-5.688-1.448l-6.305 1.654zm6.597-3.807c1.676.995 3.276 1.591 5.392 1.592 5.448 0 9.886-4.434 9.889-9.885.002-5.462-4.415-9.89-9.881-9.892-5.452 0-9.887 4.434-9.889 9.884-.001 2.225.651 3.891 1.746 5.634l-.999 3.648 3.742-.981zm11.387-5.464c-.074-.124-.272-.198-.57-.347-.297-.149-1.758-.868-2.031-.967-.272-.099-.47-.149-.669.149-.198.297-.768.967-.941 1.165-.173.198-.347.223-.644.074-.297-.149-1.255-.462-2.39-1.475-.883-.788-1.48-1.761-1.653-2.059-.173-.297-.018-.458.13-.606.134-.133.297-.347.446-.521.151-.172.2-.296.3-.495.099-.198.05-.372-.025-.521-.075-.148-.669-1.611-.916-2.206-.242-.579-.487-.501-.669-.51l-.57-.01c-.198 0-.52.074-.792.372s-1.04 1.016-1.04 2.479 1.065 2.876 1.213 3.074c.149.198 2.095 3.2 5.076 4.487.709.306 1.263.489 1.694.626.712.226 1.36.194 1.872.118.571-.085 1.758-.719 2.006-1.413.248-.695.248-1.29.173-1.414z"/>
  </symbol>

  <!-- Valor 1 -->
  <symbol id="valor1" viewBox="0 0 24 24">
    <path fill="currentColor" d="M12 2L2 7l10 5 10-5-10-5zM2 17l10 5 10-5M2 12l10 5 10-5"/>
  </symbol>

  <!-- Valor 2 -->
  <symbol id="valor2" viewBox="0 0 24 24">
    <path fill="currentColor" d="M12 2C6.48 2 2 6.48 2 12s4.48 10 10 10 10-4.48 10-10S17.52 2 12 2zm0 18c-4.41 0-8-3.59-8-8s3.59-8 8-8 8 3.59 8 8-3.59 8-8 8zm-1-13h2v6h-2zm0 8h2v2h-2z"/>
  </symbol>

  <!-- Valor 3 -->
  <symbol id="valor3" viewBox="0 0 24 24">
    <path fill="currentColor" d="M12 2C6.48 2 2 6.48 2 12s4.48 10 10 10 10-4.48 10-10S17.52 2 12 2zm0 18c-4.41 0-8-3.59-8-8s3.59-8 8-8 8 3.59 8 8-3.59 8-8 8zm-1-13h2v6h-2zm0 8h2v2h-2z"/>
  </symbol>

  <!-- Valor 4 -->
  <symbol id="valor4" viewBox="0 0 24 24">
    <path fill="currentColor" d="M12 2C6.48 2 2 6.48 2 12s4.48 10 10 10 10-4.48 10-10S17.52 2 12 2zm0 18c-4.41 0-8-3.59-8-8s3.59-8 8-8 8 3.59 8 8-3.59 8-8 8zm-1-13h2v6h-2zm0 8h2v2h-2z"/>
  </symbol>
</svg>
