<svg
  xmlns="http://www.w3.org/2000/svg"
  xmlns:xlink="http://www.w3.org/1999/xlink"
  style="display: none"
>
  <defs>
    <simbol viewBox="0 0 259.1 119.79">
      <defs>
        <style>
          .cls-1 {
            fill: #10776a;
          }
          .cls-2 {
            fill: #659def;
          }
          .cls-3 {
            font-size: 74px;
            fill: #fff;
            font-family: Poppins-SemiBold, Poppins;
            font-weight: 600;
          }
        </style>
      </defs>
      <g
        id="Capa_3"
        data-name="Capa 3"
      >
        <path
          class="cls-1"
          d="M162,306"
          transform="translate(-89.75 -227.35)"
        />
        <path
          class="cls-1"
          d="M162,432"
          transform="translate(-89.75 -227.35)"
        />
      </g>
      <g
        id="Capa_4"
        data-name="Capa 4"
      >
        <path
          class="cls-2"
          d="M117,324c1.81,0,4.3,1.37,6.12,1.8A61.21,61.21,0,0,0,129.7,327a71.11,71.11,0,0,0,13.76.28,111.39,111.39,0,0,0,29.64-6.74,221.87,221.87,0,0,0,32-14.82c5.65-3.12,11.21-6.42,16.69-9.83,7.54-4.68,15.21-9.5,23.44-13.09,8.76-3.82,17.7-7.17,26.71-10.35a265.82,265.82,0,0,1,34-9.73q4.51-.94,9.07-1.68c-5.85.94-11.93,1-17.82,1.73s-11.94,1.73-17.86,2.91a237.56,237.56,0,0,0-34.66,9.59,160.76,160.76,0,0,0-23.18,10.17c-7.77,4.31-14.26,10.17-21.62,15.05a137.43,137.43,0,0,1-27.73,14.13C154.53,321.16,135.74,324,117,324Z"
          transform="translate(-89.75 -227.35)"
        />
        <path
          class="cls-2"
          d="M162,306s-4.57,1.44-6,1.64c-13.75,1.88-28.29,3.79-41.79-.63a34.89,34.89,0,0,1-14-8.38c-7-7-10.11-17.14-10.45-27-.27-7.72,1.09-15.66,5-22.33a31.9,31.9,0,0,1,54.94-.21c-8.05-5.37-16.88-10.76-26.56-10.49-14,.4-25.37,13.37-27.3,27.2-1.11,7.91.44,16.39,5.28,22.75a32.39,32.39,0,0,0,14.42,10.22c15,5.75,32.2,3,46.88-3.62s27.43-16.7,40.4-26.21c20-14.68,41.25-28.31,64.91-35.82s50.19-8.43,72.78,1.88a24.18,24.18,0,0,1,8.32,5.54c-19.13-10-42.17-10.63-63.09-5.32s-40,16.13-57.9,28.22c-14,9.44-27.32,19.7-41.24,29.19a163.9,163.9,0,0,1-19.49,11.93C166.29,305,162,306,162,306"
          transform="translate(-89.75 -227.35)"
        />
      </g>
      <g
        id="Capa_2"
        data-name="Capa 2"
      >
        <text
          class="cls-3"
          transform="translate(18.1 75.91)"
        >
          WWS
        </text>
        <path
          d="M160,303"
          transform="translate(-89.75 -227.35)"
        />
        <path
          d="M160,303"
          transform="translate(-89.75 -227.35)"
        />
        <polyline
          points="72.25 78.65 72.25 78.65 72.25 78.65 72.25 78.65 72.25 78.65 72.25 78.65 72.25 78.65"
        />
        <path
          d="M160,429"
          transform="translate(-89.75 -227.35)"
        />
        <path
          d="M160,429"
          transform="translate(-89.75 -227.35)"
        />
        <polyline
          points="72.25 204.65 72.25 204.65 72.25 204.65 72.25 204.65 72.25 204.65 72.25 204.65 72.25 204.65"
        />
      </g>
    </simbol>
  </defs>
</svg>
