<?xml version="1.0" encoding="UTF-8"?>
<svg xmlns="http://www.w3.org/2000/svg" style="display: none;">
  <!-- Logo Splash y Navbar -->
  <symbol id="logo-splash" viewBox="0 0 259.1 110">
    <defs>
      <style>
        .cls-1{fill:#10776a;}
        .cls-2{fill:#659def;}
        .cls-3{font-size:74px;fill:#fff;font-family:Poppins-SemiBold, Poppins;font-weight:600;}
      </style>
    </defs>
    <g id="Capa_3" data-name="Capa 3">
      <path class="cls-1" d="M162,306" transform="translate(-89.75 -227.35)"/>
      <path class="cls-1" d="M162,432" transform="translate(-89.75 -227.35)"/>
    </g>
    <g id="Capa_4" data-name="Capa 4">
      <path class="cls-2" d="M117,324c1.81,0,4.3,1.37,6.12,1.8A61.21,61.21,0,0,0,129.7,327a71.11,71.11,0,0,0,13.76.28,111.39,111.39,0,0,0,29.64-6.74,221.87,221.87,0,0,0,32-14.82c5.65-3.12,11.21-6.42,16.69-9.83,7.54-4.68,15.21-9.5,23.44-13.09,8.76-3.82,17.7-7.17,26.71-10.35a265.82,265.82,0,0,1,34-9.73q4.51-.94,9.07-1.68c-5.85.94-11.93,1-17.82,1.73s-11.94,1.73-17.86,2.91a237.56,237.56,0,0,0-34.66,9.59,160.76,160.76,0,0,0-23.18,10.17c-7.77,4.31-14.26,10.17-21.62,15.05a137.43,137.43,0,0,1-27.73,14.13C154.53,321.16,135.74,324,117,324Z" transform="translate(-89.75 -227.35)"/>
      <path class="cls-2" d="M162,306s-4.57,1.44-6,1.64c-13.75,1.88-28.29,3.79-41.79-.63a34.89,34.89,0,0,1-14-8.38c-7-7-10.11-17.14-10.45-27-.27-7.72,1.09-15.66,5-22.33a31.9,31.9,0,0,1,54.94-.21c-8.05-5.37-16.88-10.76-26.56-10.49-14,.4-25.37,13.37-27.3,27.2-1.11,7.91.44,16.39,5.28,22.75a32.39,32.39,0,0,0,14.42,10.22c15,5.75,32.2,3,46.88-3.62s27.43-16.7,40.4-26.21c20-14.68,41.25-28.31,64.91-35.82s50.19-8.43,72.78,1.88a24.18,24.18,0,0,1,8.32,5.54c-19.13-10-42.17-10.63-63.09-5.32s-40,16.13-57.9,28.22c-14,9.44-27.32,19.7-41.24,29.19a163.9,163.9,0,0,1-19.49,11.93C166.29,305,162,306,162,306" transform="translate(-89.75 -227.35)"/>
    </g>
    <g id="Capa_2" data-name="Capa 2">
      <text class="cls-3" transform="translate(18.1 75.91)">WWS</text>
      <path d="M160,303" transform="translate(-89.75 -227.35)"/>
      <path d="M160,303" transform="translate(-89.75 -227.35)"/>
      <polyline points="72.25 78.65 72.25 78.65 72.25 78.65 72.25 78.65 72.25 78.65 72.25 78.65 72.25 78.65"/>
      <path d="M160,429" transform="translate(-89.75 -227.35)"/>
      <path d="M160,429" transform="translate(-89.75 -227.35)"/>
      <polyline points="72.25 204.65 72.25 204.65 72.25 204.65 72.25 204.65 72.25 204.65 72.25 204.65 72.25 204.65"/>
    </g>
  </symbol>

  <!-- Logo Blanco y Negro -->
  <symbol id="logo-blanco-negro" viewBox="0 0 259.1 119.79">
    <defs>
      <style>
        .cls-1 { fill: #10776a; }
        .cls-2 { fill: #659def; }
        .cls-3 { font-size: 74px; fill: #fff; font-family: Poppins-SemiBold, Poppins; font-weight: 600; }
      </style>
    </defs>
    <g id="Capa_3" data-name="Capa 3">
      <path class="cls-1" d="M162,306" transform="translate(-89.75 -227.35)"/>
      <path class="cls-1" d="M162,432" transform="translate(-89.75 -227.35)"/>
    </g>
    <g id="Capa_4" data-name="Capa 4">
      <path class="cls-2" d="M117,324c1.81,0,4.3,1.37,6.12,1.8A61.21,61.21,0,0,0,129.7,327a71.11,71.11,0,0,0,13.76.28,111.39,111.39,0,0,0,29.64-6.74,221.87,221.87,0,0,0,32-14.82c5.65-3.12,11.21-6.42,16.69-9.83,7.54-4.68,15.21-9.5,23.44-13.09,8.76-3.82,17.7-7.17,26.71-10.35a265.82,265.82,0,0,1,34-9.73q4.51-.94,9.07-1.68c-5.85.94-11.93,1-17.82,1.73s-11.94,1.73-17.86,2.91a237.56,237.56,0,0,0-34.66,9.59,160.76,160.76,0,0,0-23.18,10.17c-7.77,4.31-14.26,10.17-21.62,15.05a137.43,137.43,0,0,1-27.73,14.13C154.53,321.16,135.74,324,117,324Z" transform="translate(-89.75 -227.35)"/>
      <path class="cls-2" d="M162,306s-4.57,1.44-6,1.64c-13.75,1.88-28.29,3.79-41.79-.63a34.89,34.89,0,0,1-14-8.38c-7-7-10.11-17.14-10.45-27-.27-7.72,1.09-15.66,5-22.33a31.9,31.9,0,0,1,54.94-.21c-8.05-5.37-16.88-10.76-26.56-10.49-14,.4-25.37,13.37-27.3,27.2-1.11,7.91.44,16.39,5.28,22.75a32.39,32.39,0,0,0,14.42,10.22c15,5.75,32.2,3,46.88-3.62s27.43-16.7,40.4-26.21c20-14.68,41.25-28.31,64.91-35.82s50.19-8.43,72.78,1.88a24.18,24.18,0,0,1,8.32,5.54c-19.13-10-42.17-10.63-63.09-5.32s-40,16.13-57.9,28.22c-14,9.44-27.32,19.7-41.24,29.19a163.9,163.9,0,0,1-19.49,11.93C166.29,305,162,306,162,306" transform="translate(-89.75 -227.35)"/>
    </g>
    <g id="Capa_2" data-name="Capa 2">
      <text class="cls-3" transform="translate(18.1 75.91)">WWS</text>
      <path d="M160,303" transform="translate(-89.75 -227.35)"/>
      <path d="M160,303" transform="translate(-89.75 -227.35)"/>
      <polyline points="72.25 78.65 72.25 78.65 72.25 78.65 72.25 78.65 72.25 78.65 72.25 78.65 72.25 78.65"/>
      <path d="M160,429" transform="translate(-89.75 -227.35)"/>
      <path d="M160,429" transform="translate(-89.75 -227.35)"/>
      <polyline points="72.25 204.65 72.25 204.65 72.25 204.65 72.25 204.65 72.25 204.65 72.25 204.65 72.25 204.65"/>
    </g>
  </symbol>

  <!-- Background -->
  <symbol id="background" viewBox="0 0 1440 1024">
    <path fill="url(#a)" fill-rule="evenodd" d="M-217.58 475.75c91.82-72.02 225.52-29.38 341.2-44.74C240 415.56 372.33 315.14 466.77 384.9c102.9 76.02 44.74 246.76 90.31 366.31 29.83 78.24 90.48 136.14 129.48 210.23 57.92 109.99 169.67 208.23 155.9 331.77-13.52 121.26-103.42 264.33-224.23 281.37-141.96 20.03-232.72-220.96-374.06-196.99-151.7 25.73-172.68 330.24-325.85 315.72-128.6-12.2-110.9-230.73-128.15-358.76-12.16-90.14 65.87-176.25 44.1-264.57-26.42-107.2-167.12-163.46-176.72-273.45-10.15-116.29 33.01-248.75 124.87-320.79Z" clip-rule="evenodd" style="opacity: 0.154"/>
    <path fill="url(#b)" fill-rule="evenodd" d="M1103.43 115.43c146.42-19.45 275.33-155.84 413.5-103.59 188.09 71.13 409 212.64 407.06 413.88-1.94 201.25-259.28 278.6-414.96 405.96-130 106.35-240.24 294.39-405.6 265.3-163.7-28.8-161.93-274.12-284.34-386.66-134.95-124.06-436-101.46-445.82-284.6-9.68-180.38 247.41-246.3 413.54-316.9 101.01-42.93 207.83 21.06 316.62 6.61Z" clip-rule="evenodd" style="opacity: 0.154"/>
    <defs>
      <linearGradient id="b" x1="373" x2="1995.44" y1="1100" y2="118.03" gradientUnits="userSpaceOnUse">
        <stop stop-color="#D83333"/>
        <stop offset="1" stop-color="#F041FF"/>
      </linearGradient>
      <linearGradient id="a" x1="107.37" x2="1130.66" y1="1993.35" y2="1026.31" gradientUnits="userSpaceOnUse">
        <stop stop-color="#3245FF"/>
        <stop offset="1" stop-color="#BC52EE"/>
      </linearGradient>
    </defs>
  </symbol>

  <!-- Instagram -->
  <symbol id="instagram" viewBox="0 0 24 24">
    <path fill="currentColor" d="M12 2.163c3.204 0 3.584.012 4.85.07 3.252.148 4.771 1.691 4.919 4.919.058 1.265.069 1.645.069 4.849 0 3.205-.012 3.584-.069 4.849-.149 3.225-1.664 4.771-4.919 4.919-1.266.058-1.644.07-4.85.07-3.204 0-3.584-.012-4.849-.07-3.26-.149-4.771-1.699-4.919-4.92-.058-1.265-.07-1.644-.07-4.849 0-3.204.013-3.583.07-4.849.149-3.227 1.664-4.771 4.919-4.919 1.266-.057 1.645-.069 4.849-.069zm0-2.163c-3.259 0-3.667.014-4.947.072-4.358.2-6.78 2.618-6.98 6.98-.059 1.281-.073 1.689-.073 4.948 0 3.259.014 3.668.072 4.948.2 4.358 2.618 6.78 6.98 6.98 1.281.058 1.689.072 4.948.072 3.259 0 3.668-.014 4.948-.072 4.354-.2 6.782-2.618 6.979-6.98.059-1.28.073-1.689.073-4.948 0-3.259-.014-3.667-.072-4.947-.196-4.354-2.617-6.78-6.979-6.98-1.281-.059-1.69-.073-4.949-.073zm0 5.838c-3.403 0-6.162 2.759-6.162 6.162s2.759 6.163 6.162 6.163 6.162-2.759 6.162-6.163c0-3.403-2.759-6.162-6.162-6.162zm0 10.162c-2.209 0-4-1.79-4-4 0-2.209 1.791-4 4-4s4 1.791 4 4c0 2.21-1.791 4-4 4zm6.406-11.845c-.796 0-1.441.645-1.441 1.44s.645 1.44 1.441 1.44c.795 0 1.439-.645 1.439-1.44s-.644-1.44-1.439-1.44z"/>
  </symbol>

  <!-- Facebook -->
  <symbol id="facebook" viewBox="0 0 24 24">
    <path fill="currentColor" d="M9 8h-3v4h3v12h5v-12h3.642l.358-4h-4v-1.667c0-.955.192-1.333 1.115-1.333h2.885v-5h-3.808c-3.596 0-5.192 1.583-5.192 4.615v3.385z"/>
  </symbol>

  <!-- Whatsapp -->
  <symbol id="whatsapp" viewBox="0 0 24 24">
    <path fill="currentColor" d="M.057 24l1.687-6.163c-1.041-1.804-1.588-3.849-1.587-5.946.003-6.556 5.338-11.891 11.893-11.891 3.181.001 6.167 1.24 8.413 3.488 2.245 2.248 3.481 5.236 3.48 8.414-.003 6.557-5.338 11.892-11.893 11.892-1.99-.001-3.951-.5-5.688-1.448l-6.305 1.654zm6.597-3.807c1.676.995 3.276 1.591 5.392 1.592 5.448 0 9.886-4.434 9.889-9.885.002-5.462-4.415-9.89-9.881-9.892-5.452 0-9.887 4.434-9.889 9.884-.001 2.225.651 3.891 1.746 5.634l-.999 3.648 3.742-.981zm11.387-5.464c-.074-.124-.272-.198-.57-.347-.297-.149-1.758-.868-2.031-.967-.272-.099-.47-.149-.669.149-.198.297-.768.967-.941 1.165-.173.198-.347.223-.644.074-.297-.149-1.255-.462-2.39-1.475-.883-.788-1.48-1.761-1.653-2.059-.173-.297-.018-.458.13-.606.134-.133.297-.347.446-.521.151-.172.2-.296.3-.495.099-.198.05-.372-.025-.521-.075-.148-.669-1.611-.916-2.206-.242-.579-.487-.501-.669-.51l-.57-.01c-.198 0-.52.074-.792.372s-1.04 1.016-1.04 2.479 1.065 2.876 1.213 3.074c.149.198 2.095 3.2 5.076 4.487.709.306 1.263.489 1.694.626.712.226 1.36.194 1.872.118.571-.085 1.758-.719 2.006-1.413.248-.695.248-1.29.173-1.414z"/>
  </symbol>

  <!-- Valor 1 -->
  <symbol id="valor1" viewBox="0 0 24 24">
    <path fill="currentColor" d="M12 2L2 7l10 5 10-5-10-5zM2 17l10 5 10-5M2 12l10 5 10-5"/>
  </symbol>

  <!-- Valor 2 -->
  <symbol id="valor2" viewBox="0 0 24 24">
    <path fill="currentColor" d="M12 2C6.48 2 2 6.48 2 12s4.48 10 10 10 10-4.48 10-10S17.52 2 12 2zm0 18c-4.41 0-8-3.59-8-8s3.59-8 8-8 8 3.59 8 8-3.59 8-8 8zm-1-13h2v6h-2zm0 8h2v2h-2z"/>
  </symbol>

  <!-- Valor 3 -->
  <symbol id="valor3" viewBox="0 0 24 24">
    <path fill="currentColor" d="M12 2C6.48 2 2 6.48 2 12s4.48 10 10 10 10-4.48 10-10S17.52 2 12 2zm0 18c-4.41 0-8-3.59-8-8s3.59-8 8-8 8 3.59 8 8-3.59 8-8 8zm-1-13h2v6h-2zm0 8h2v2h-2z"/>
  </symbol>

  <!-- Valor 4 -->
  <symbol id="valor4" viewBox="0 0 24 24">
    <path fill="currentColor" d="M12 2C6.48 2 2 6.48 2 12s4.48 10 10 10 10-4.48 10-10S17.52 2 12 2zm0 18c-4.41 0-8-3.59-8-8s3.59-8 8-8 8 3.59 8 8-3.59 8-8 8zm-1-13h2v6h-2zm0 8h2v2h-2z"/>
  </symbol>
</svg>
