<svg width="54" height="54" viewBox="0 0 54 54" fill="none" xmlns="http://www.w3.org/2000/svg">
<circle cx="27.1086" cy="26.8914" r="26.8914" fill="#D9D9D9"/>
<g clip-path="url(#clip0_159_46)">
<path d="M39.3559 13.7795C36.0166 10.4145 31.5697 8.56372 26.8437 8.56372C17.0891 8.56372 9.15142 16.5436 9.15142 26.3501C9.15142 29.4828 9.96431 32.5433 11.5104 35.2433L9 44.457L18.3801 41.9814C20.9622 43.3995 23.8711 44.1446 26.8358 44.1446H26.8437C36.5904 44.1446 44.7034 36.1647 44.7034 26.3582C44.7034 21.6071 42.6951 17.1445 39.3559 13.7795ZM26.8437 41.1481C24.1979 41.1481 21.6078 40.4351 19.3524 39.0891L18.8184 38.7686L13.2557 40.2348L14.738 34.7787L14.3874 34.2178C12.913 31.8623 12.14 29.1463 12.14 26.3501C12.14 18.202 18.7387 11.5682 26.8517 11.5682C30.7807 11.5682 34.4706 13.1065 37.2439 15.9026C40.0173 18.6988 41.7228 22.4083 41.7148 26.3582C41.7148 34.5143 34.9487 41.1481 26.8437 41.1481ZM34.9089 30.0757C34.4706 29.8513 32.2949 28.7777 31.8884 28.6335C31.482 28.4813 31.1871 28.4092 30.8922 28.8579C30.5974 29.3065 29.7526 30.3 29.4896 30.6045C29.2346 30.9009 28.9716 30.941 28.5333 30.7166C25.9352 29.4107 24.2297 28.3852 22.5163 25.4288C22.062 24.6436 22.9706 24.6997 23.8153 23.0012C23.9588 22.7047 23.887 22.4483 23.7755 22.224C23.6639 21.9997 22.7793 19.8124 22.4127 18.9231C22.0541 18.0578 21.6875 18.178 21.4165 18.162C21.1615 18.146 20.8666 18.146 20.5717 18.146C20.2769 18.146 19.7987 18.2581 19.3922 18.6988C18.9858 19.1474 17.8462 20.221 17.8462 22.4083C17.8462 24.5955 19.4321 26.7107 19.6473 27.0071C19.8704 27.3036 22.7633 31.7902 27.2024 33.7211C30.0076 34.9389 31.1074 35.0431 32.5101 34.8347C33.3628 34.7066 35.1241 33.7611 35.4907 32.7196C35.8572 31.6781 35.8572 30.7887 35.7457 30.6045C35.6421 30.4042 35.3472 30.292 34.9089 30.0757Z" fill="#06214E"/>
</g>
<defs>
<clipPath id="clip0_159_46">
<rect width="35.7034" height="41.0209" fill="white" transform="translate(9 6)"/>
</clipPath>
</defs>
</svg>
